<svg width="201" height="205" viewBox="0 0 201 205" fill="none" xmlns="http://www.w3.org/2000/svg">
    <path
        d="M50.1319 51.0452C36.8361 64.5832 29.3668 82.9445 29.3671 102.09C29.3674 121.235 36.8374 139.596 50.1336 153.134C63.4299 166.671 81.4633 174.276 100.267 174.276C119.07 174.276 137.103 166.67 150.399 153.132C163.695 139.594 171.164 121.233 171.164 102.087C171.164 82.942 163.694 64.5809 150.397 51.0434C137.101 37.5058 119.068 29.9007 100.264 29.9011C81.4609 29.9014 63.4277 37.5072 50.1319 51.0452Z"
        fill="white" />
    <path
        d="M100.267 178.213C81.0596 178.213 61.9815 170.732 47.415 155.901C18.2822 126.238 18.2822 77.9384 47.415 48.2759C76.5479 18.6134 123.985 18.6134 153.118 48.2759C154.665 49.8509 153.047 54.0562 151.5 55.5C149.953 57.075 145.918 58.575 144.5 57C118.332 30.4875 83.5 32 56.5 55.5C30.4609 82.1438 30.4609 119.856 56.5 146.5C79.4667 170 118.461 173.144 144.5 146.5C146.047 144.925 150.082 148.425 151.5 150C153.047 151.575 154.536 154.457 152.989 155.901C138.552 170.732 119.474 178.213 100.267 178.213Z"
        fill="#FFB800" />
    <path
        d="M119.6 106.026H159.303L146.541 119.02C144.994 120.595 144.994 123.089 146.541 124.533C148.088 126.108 150.537 126.108 151.955 124.533L171.291 104.845C172.064 104.058 172.451 103.008 172.451 102.089C172.451 101.039 172.064 100.12 171.291 99.3326L151.955 79.6451C151.182 78.8576 150.15 78.4639 149.248 78.4639C148.346 78.4639 147.314 78.8576 146.541 79.6451C144.994 81.2201 144.994 83.7139 146.541 85.1576L159.303 98.1514H119.6C117.408 98.1514 115.732 99.8576 115.732 102.089C115.732 104.32 117.408 106.026 119.6 106.026ZM100.264 98.1514C99.238 98.1514 98.2544 98.5662 97.5292 99.3046C96.8039 100.043 96.3965 101.045 96.3965 102.089C96.3965 103.133 96.8039 104.135 97.5292 104.873C98.2544 105.612 99.238 106.026 100.264 106.026C101.289 106.026 102.273 105.612 102.998 104.873C103.723 104.135 104.131 103.133 104.131 102.089C104.131 101.045 103.723 100.043 102.998 99.3046C102.273 98.5662 101.289 98.1514 100.264 98.1514Z"
        fill="#FFB800" />
</svg>
