<svg width="658" height="274" viewBox="0 0 658 274" fill="none" xmlns="http://www.w3.org/2000/svg">
    <path
        d="M200.868 189.6C199.535 189.867 198.268 189.4 197.068 188.2C196.001 187 195.468 185.667 195.468 184.2V164.2C195.468 162.867 195.935 161.667 196.868 160.6C197.801 159.4 199.001 158.467 200.468 157.8L206.868 155.2C213.135 152.667 218.001 149.067 221.468 144.4C225.068 139.6 226.868 132.8 226.868 124C226.868 115.6 225.335 109.733 222.268 106.4C219.335 102.933 213.868 101.2 205.868 101.2H152.668C151.201 101.2 149.935 100.733 148.868 99.8C147.935 98.7333 147.468 97.5333 147.468 96.2V77.6C147.468 76.2667 148.001 75.1333 149.068 74.2C150.135 73.2667 151.335 72.8 152.668 72.8H212.868C230.201 72.8 242.601 77 250.068 85.4C257.668 93.6667 261.468 106.2 261.468 123C261.468 139.933 256.468 153.8 246.468 164.6C236.468 175.4 224.001 182.933 209.068 187.2L200.868 189.6ZM152.668 225.2C151.201 225.2 149.935 224.733 148.868 223.8C147.935 222.867 147.468 221.667 147.468 220.2V123.6C147.468 122.133 147.935 120.933 148.868 120C149.935 118.933 151.201 118.4 152.668 118.4H175.468C176.935 118.4 178.135 118.933 179.068 120C180.001 120.933 180.468 122.133 180.468 123.6V220.2C180.468 221.667 180.001 222.867 179.068 223.8C178.135 224.733 176.935 225.2 175.468 225.2H152.668ZM296.066 187C294.6 187 293.333 186.533 292.266 185.6C291.333 184.667 290.866 183.467 290.866 182V77.8C290.866 76.3333 291.333 75.1333 292.266 74.2C293.333 73.2667 294.6 72.8 296.066 72.8H320.866C322.333 72.8 323.533 73.2667 324.466 74.2C325.4 75.1333 325.866 76.3333 325.866 77.8V182C325.866 183.333 325.4 184.533 324.466 185.6C323.533 186.533 322.333 187 320.866 187H296.066ZM424.655 72.8C442.922 72.8 456.655 76.8 465.855 84.8C475.189 92.6667 479.855 105 479.855 121.8V182C479.855 183.467 479.322 184.667 478.255 185.6C477.322 186.533 476.122 187 474.655 187H451.255C449.789 187 448.522 186.533 447.455 185.6C446.522 184.667 446.055 183.467 446.055 182V122.8C446.055 107.6 438.522 100 423.455 100H410.455C409.255 104.533 408.389 109.067 407.855 113.6C407.455 118.133 407.255 123.4 407.255 129.4L408.855 182C408.855 183.333 408.389 184.533 407.455 185.6C406.522 186.533 405.322 187 403.855 187L361.455 186.8C359.989 186.8 358.722 186.333 357.655 185.4C356.722 184.467 356.255 183.267 356.255 181.8V166.2C356.255 164.733 356.722 163.533 357.655 162.6C358.722 161.533 359.989 161 361.455 161L377.655 161.2V129.6C377.389 118.667 378.389 108.8 380.655 100H368.855C367.389 100 366.122 99.5333 365.055 98.6C364.122 97.5333 363.655 96.2667 363.655 94.8V77.8C363.655 76.3333 364.122 75.1333 365.055 74.2C366.122 73.2667 367.389 72.8 368.855 72.8H424.655ZM516.634 139.6C515.167 139.6 513.9 139.133 512.834 138.2C511.9 137.267 511.434 136.067 511.434 134.6V77.8C511.434 76.3333 511.9 75.1333 512.834 74.2C513.9 73.2667 515.167 72.8 516.634 72.8H541.434C542.9 72.8 544.1 73.2667 545.034 74.2C545.967 75.1333 546.434 76.3333 546.434 77.8V134.6C546.434 135.933 545.967 137.133 545.034 138.2C544.1 139.133 542.9 139.6 541.434 139.6H516.634Z"
        fill="#0B0B27" />
    <path
        d="M649.46 182C649.593 183.333 649.127 184.533 648.06 185.6C647.127 186.533 645.927 187 644.46 187H580.26C578.793 187 577.527 186.533 576.46 185.6C575.527 184.667 575.06 183.467 575.06 182V165C575.06 163.533 575.527 162.333 576.46 161.4C577.527 160.333 578.793 159.8 580.26 159.8H613.46L611.66 120.4C611.393 112.533 610.127 106.933 607.86 103.6C605.593 100.133 601.393 98.4 595.26 98.4H585.06C583.593 98.4 582.393 97.9333 581.46 97C580.527 95.9333 580.06 94.6667 580.06 93.2V76.6C580.06 75.1333 580.527 73.9333 581.46 73C582.393 71.9333 583.593 71.4 585.06 71.4H595.86C613.327 71.4 625.993 75.3333 633.86 83.2C641.727 91.0667 645.993 103.667 646.66 121L649.46 182Z"
        fill="#FFC727" />
    <path
        d="M50.1319 120.045C36.8361 133.583 29.3668 151.944 29.3671 171.09C29.3674 190.235 36.8374 208.596 50.1336 222.134C63.4299 235.671 81.4633 243.276 100.267 243.276C119.07 243.276 137.103 235.67 150.399 222.132C163.695 208.594 171.164 190.233 171.164 171.087C171.164 151.942 163.694 133.581 150.397 120.043C137.101 106.506 119.068 98.9007 100.264 98.9011C81.4609 98.9014 63.4277 106.507 50.1319 120.045V120.045Z"
        fill="#0B0B27" />
    <path
        d="M100.267 247.213C81.0596 247.213 61.9814 239.732 47.415 224.901C18.2822 195.238 18.2822 146.938 47.415 117.276C76.5479 87.6134 123.985 87.6134 153.118 117.276C154.665 118.851 154.665 121.345 153.118 122.788C151.571 124.363 149.122 124.363 147.704 122.788C121.536 96.2759 78.9971 96.2759 52.8291 122.788C26.79 149.432 26.79 192.745 52.8291 219.388C78.9971 246.032 121.536 246.032 147.575 219.388C149.122 217.813 151.571 217.813 152.989 219.388C154.536 220.963 154.536 223.457 152.989 224.901C138.552 239.732 119.474 247.213 100.267 247.213Z"
        fill="#FFC727" />
    <path
        d="M119.6 175.026H159.303L146.541 188.02C144.994 189.595 144.994 192.089 146.541 193.533C148.088 195.108 150.537 195.108 151.955 193.533L171.291 173.845C172.064 173.058 172.451 172.008 172.451 171.089C172.451 170.039 172.064 169.12 171.291 168.333L151.955 148.645C151.182 147.858 150.15 147.464 149.248 147.464C148.346 147.464 147.314 147.858 146.541 148.645C144.994 150.22 144.994 152.714 146.541 154.158L159.303 167.151H119.6C117.408 167.151 115.732 168.858 115.732 171.089C115.732 173.32 117.408 175.026 119.6 175.026ZM100.264 167.151C99.238 167.151 98.2544 167.566 97.5292 168.305C96.8039 169.043 96.3965 170.045 96.3965 171.089C96.3965 172.133 96.8039 173.135 97.5292 173.873C98.2544 174.612 99.238 175.026 100.264 175.026C101.289 175.026 102.273 174.612 102.998 173.873C103.723 173.135 104.131 172.133 104.131 171.089C104.131 170.045 103.723 169.043 102.998 168.305C102.273 167.566 101.289 167.151 100.264 167.151V167.151Z"
        fill="#FFC727" />
</svg>
